<?xml version="1.0" standalone="no"?>
<!DOCTYPE svg PUBLIC "-//W3C//DTD SVG 20010904//EN"
 "http://www.w3.org/TR/2001/REC-SVG-20010904/DTD/svg10.dtd">
<svg version="1.0" xmlns="http://www.w3.org/2000/svg"
 width="300.000000pt" height="300.000000pt" viewBox="0 0 300.000000 300.000000"
 preserveAspectRatio="xMidYMid meet">

<g transform="translate(0.000000,300.000000) scale(0.100000,-0.100000)"
fill="#000000" stroke="none">
<path d="M1335 2874 c-329 -50 -590 -179 -810 -399 -195 -194 -321 -428 -381
-705 -29 -133 -27 -420 4 -560 92 -412 363 -760 737 -947 471 -237 1059 -176
1470 151 274 218 454 525 510 871 21 128 19 328 -4 456 -86 476 -409 867 -868
1050 -144 57 -268 80 -458 84 -93 2 -183 1 -200 -1z m418 -55 c366 -74 666
-275 869 -579 258 -390 293 -904 88 -1325 -164 -337 -470 -598 -825 -703 -256
-76 -558 -72 -810 13 -395 131 -719 454 -849 845 -89 268 -89 597 -1 855 139
407 450 715 865 855 181 62 470 79 663 39z"/>
<path d="M775 2128 c-27 -21 -105 -132 -105 -150 0 -18 37 -7 47 15 6 12 28
43 49 69 l39 48 178 0 179 0 34 -37 c18 -21 41 -53 51 -70 10 -18 26 -33 35
-33 10 0 18 2 18 5 0 16 -38 76 -77 123 l-45 52 -187 0 c-178 0 -190 -1 -216
-22z"/>
<path d="M1775 2098 c-58 -64 -84 -113 -68 -129 8 -8 16 -3 29 16 11 14 36 48
57 76 l37 49 179 0 179 0 29 -33 c16 -18 39 -50 52 -70 23 -38 51 -49 51 -21
0 19 -46 87 -89 132 l-31 32 -189 0 -189 0 -47 -52z"/>
<path d="M1332 1964 c-17 -8 -76 -26 -130 -40 -80 -22 -118 -27 -217 -26 -119
0 -153 6 -352 64 -49 14 -67 4 -36 -20 l23 -17 -25 -50 c-46 -92 -46 -196 0
-249 14 -16 25 -41 25 -56 0 -38 18 -50 77 -50 40 0 58 5 73 20 11 11 20 24
20 30 0 5 39 11 87 12 74 3 88 6 91 21 3 15 -8 17 -130 17 -206 0 -238 16
-238 120 0 42 7 71 27 111 32 62 24 61 168 29 132 -29 259 -29 385 0 52 12
105 24 116 27 18 4 26 -5 50 -56 19 -39 34 -59 44 -58 20 4 15 30 -16 90 -25
49 -25 49 -4 54 12 3 20 12 18 21 -4 21 -18 23 -56 6z m-607 -384 c20 0 26 -3
18 -11 -15 -15 -85 -7 -91 10 -4 10 1 12 19 8 13 -4 37 -7 54 -7z"/>
<path d="M2311 1948 c-209 -71 -402 -70 -608 2 -31 11 -65 20 -75 20 -24 0
-23 -27 1 -35 19 -6 19 -7 -4 -53 -31 -60 -34 -85 -14 -90 11 -2 21 11 33 40
9 24 23 52 31 62 14 18 17 18 72 3 182 -51 364 -51 530 0 50 16 54 16 73 -2
25 -23 50 -104 50 -162 0 -99 -31 -113 -255 -113 -153 0 -166 -1 -163 -17 3
-16 18 -18 121 -21 65 -1 116 -6 113 -11 -13 -20 23 -44 71 -48 64 -7 93 8 93
47 0 17 10 40 25 56 46 49 47 155 2 246 l-27 53 21 16 c17 12 18 17 7 26 -9 7
-37 2 -97 -19z m37 -370 c-5 -15 -98 -24 -98 -9 0 9 28 16 78 20 15 0 22 -4
20 -11z"/>
<path d="M665 1740 c-13 -22 10 -30 84 -30 82 0 93 3 84 26 -6 17 -158 20
-168 4z"/>
<path d="M2174 1739 c-13 -21 14 -30 87 -27 61 2 74 6 77 21 3 15 -6 17 -77
17 -47 0 -83 -5 -87 -11z"/>
<path d="M1187 1648 c-46 -50 -127 -167 -127 -185 0 -31 37 -10 60 34 13 25
47 70 73 100 l49 53 254 0 253 0 50 -59 c27 -33 59 -78 72 -100 24 -43 49 -54
49 -23 0 26 -53 106 -112 168 l-51 54 -265 0 -264 0 -41 -42z"/>
<path d="M940 1431 c0 -12 11 -23 30 -30 28 -9 42 -31 21 -31 -6 0 -25 -30
-43 -67 -30 -61 -33 -78 -36 -171 -4 -97 -2 -105 22 -143 15 -21 30 -39 35
-39 5 0 11 -22 15 -50 8 -61 22 -70 111 -70 79 0 101 10 110 50 l7 30 289 0
289 0 0 -23 c0 -42 29 -57 112 -57 88 0 108 14 108 74 0 28 6 43 24 57 14 11
32 40 42 64 32 86 3 247 -61 330 l-26 34 36 15 c34 15 44 29 26 40 -5 4 -56
-10 -114 -29 -171 -57 -284 -77 -437 -78 -158 -2 -255 15 -433 74 -66 21 -122
39 -124 39 -1 0 -3 -9 -3 -19z m175 -76 c117 -36 248 -56 373 -56 136 -1 197
7 360 48 121 30 123 30 167 -69 37 -81 45 -206 18 -258 -34 -66 -59 -69 -531
-70 -274 0 -428 4 -458 11 -89 23 -120 102 -90 238 17 80 68 171 96 171 8 0
38 -7 65 -15z m54 -451 c2 -2 1 -10 -3 -19 -5 -13 -19 -15 -73 -13 -62 3 -68
5 -71 26 -4 23 -3 23 70 16 40 -3 75 -8 77 -10z m801 -9 c0 -24 -2 -25 -69
-25 -60 0 -69 3 -74 20 -4 17 1 19 47 23 28 2 61 4 74 5 17 2 22 -3 22 -23z"/>
<path d="M1052 1113 c3 -16 16 -18 113 -18 91 0 110 3 110 15 0 12 -21 16
-113 18 -104 2 -113 1 -110 -15z"/>
<path d="M1730 1110 c0 -20 5 -21 107 -18 93 3 108 5 111 21 3 15 -7 17 -107
17 -105 0 -111 -1 -111 -20z"/>
</g>
</svg>
